<svg width="45" height="45" viewBox="0 0 45 45" fill="none" xmlns="http://www.w3.org/2000/svg">
<path d="M42.3333 21.3333C42.3333 32.2872 26.9065 43.5 22.5 43.5C18.0923 43.5 2.66663 32.2872 2.66663 21.3333C2.66663 10.3795 11.5461 1.5 22.5 1.5C33.4538 1.5 42.3333 10.3795 42.3333 21.3333Z" fill="#CCD6DD"/>
<path d="M17.2535 18.8192C20.8982 22.4638 22.3752 26.896 20.5528 28.7183C18.7305 30.5407 14.2983 29.0648 10.6537 25.419C7.00783 21.7743 5.53083 17.3422 7.35433 15.5198C9.17783 13.6975 13.6088 15.1745 17.2535 18.8192V18.8192ZM27.7465 18.8192C24.1018 22.4638 22.6248 26.896 24.4472 28.7183C26.2695 30.5407 30.7017 29.0648 34.3463 25.419C37.9922 21.7732 39.4692 17.3422 37.6457 15.5198C35.8233 13.6975 31.3912 15.1733 27.7465 18.8192V18.8192ZM22.5 37.6667C19.7618 37.6667 18.3292 36.3133 18.1752 36.1582C17.719 35.702 17.719 34.9647 18.1752 34.5085C18.6267 34.057 19.357 34.0523 19.8132 34.4968C19.8727 34.5517 20.7535 35.3333 22.5 35.3333C24.2722 35.3333 25.1518 34.5295 25.1892 34.4945C25.6535 34.0582 26.3873 34.071 26.8318 34.5283C27.274 34.9868 27.2752 35.7078 26.8248 36.157C26.6708 36.3133 25.2382 37.6667 22.5 37.6667Z" fill="#292F33"/>
</svg>
